<?xml version="1.0" standalone="no"?>
<!DOCTYPE svg PUBLIC "-//W3C//DTD SVG 1.1//EN" "http://www.w3.org/Graphics/SVG/1.1/DTD/svg11.dtd" >
<svg xmlns="http://www.w3.org/2000/svg">
<metadata></metadata>
<defs>
<font id="nivoregular" horiz-adv-x="1116" >
<font-face units-per-em="2048" ascent="1536" descent="-512" />
<missing-glyph horiz-adv-x="512" />
<glyph horiz-adv-x="0" />
<glyph horiz-adv-x="682" />
<glyph unicode=" "  horiz-adv-x="512" />
<glyph unicode="&#x09;" horiz-adv-x="512" />
<glyph unicode="&#xa0;" horiz-adv-x="512" />
<glyph unicode="!" horiz-adv-x="256" d="M82 0v160h92v-160h-92zM82 305v1129h92v-1129h-92z" />
<glyph unicode="&#x22;" horiz-adv-x="399" d="M0 1034l170 373l84 -35l-170 -377zM145 1034l170 373l84 -35l-170 -377z" />
<glyph unicode="#" horiz-adv-x="724" d="M0 360v82h164v320h-164v82h164v178h92v-178h213v178h92v-178h164v-82h-164v-320h164v-82h-164v-178h-92v178h-213v-178h-92v178h-164zM256 442h213v320h-213v-320z" />
<glyph unicode="$" horiz-adv-x="1208" d="M0 0v92h430v854h-61q-98 0 -169 71t-71 169q0 99 70.5 169t169.5 70h61v119h68v-119h151v119h68v-119h143v-92h-143v-301q186 -35 305.5 -179.5t124.5 -336.5q0 -192 -123 -336.5t-307 -173.5v-125h-68v119h-151v-119h-68v119h-430zM221 1186q0 -60 43.5 -104t104.5 -44 h61v295h-61q-62 0 -105 -43t-43 -104zM498 92h151v854h-151v-854zM498 1038h151v295h-151v-295zM717 102q146 31 242 147.5t96 270.5q0 152 -96 269.5t-242 148.5v-836z" />
<glyph unicode="%" horiz-adv-x="749" d="M4 963v354q0 72 49.5 122t120.5 50q72 0 122 -50t50 -122v-354q0 -71 -50 -121.5t-122 -50.5q-70 0 -120 50.5t-50 121.5zM41 -27l84 -32l604 1511l-86 33zM96 963q0 -32 23 -56t55 -24q33 0 56.5 23.5t23.5 56.5v354q0 34 -23 57t-57 23q-32 0 -55 -23t-23 -57v-354z M422 154v354q0 72 49.5 122t120.5 50q72 0 122 -50t50 -122v-354q0 -71 -50 -121.5t-122 -50.5q-70 0 -120 50.5t-50 121.5zM514 154q0 -32 23 -56t55 -24q33 0 56.5 23.5t23.5 56.5v354q0 34 -23 57t-57 23q-32 0 -55 -23t-23 -57v-354z" />
<glyph unicode="&#x26;" horiz-adv-x="1019" d="M61 418q0 97 42 187t120 153q41 35 92 57l-45 64q-51 70 -51 159q0 114 81 194.5t196 80.5q114 0 194 -80.5t80 -194.5h-92q0 75 -53.5 129t-128.5 54q-76 0 -130.5 -54t-54.5 -129q0 -52 35 -106l483 -682l113 90l57 -72l-116 -94l98 -135l-76 -53l-94 131l-49 -39 q-121 -92 -266 -92q-98 0 -187 41.5t-153 119.5q-95 121 -95 271zM154 418q0 -123 73 -211q49 -61 120 -95t149 -34q108 0 209 72l59 47l-395 540q-52 -20 -88 -51q-113 -89 -125 -229q-2 -12 -2 -39z" />
<glyph unicode="'" horiz-adv-x="92" d="M0 1024v401h92v-401h-92z" />
<glyph unicode="(" horiz-adv-x="331" d="M82 195v1030q0 86 61.5 147.5t147.5 61.5v-93q-47 0 -82 -34.5t-35 -81.5v-1030q0 -47 35 -82t82 -35v-92q-86 0 -147.5 61.5t-61.5 147.5z" />
<glyph unicode=")" horiz-adv-x="331" d="M41 -14v92q49 0 83 34.5t34 82.5v1030q0 48 -34 82t-83 34v93q87 0 148 -61t61 -148v-1030q0 -87 -61 -148t-148 -61z" />
<glyph unicode="*" horiz-adv-x="350" d="M0 1116l111 109l-111 108l66 66l63 -64v90h92v-90l64 64l65 -66l-110 -108l110 -109l-65 -65l-64 63v-90h-92v90l-63 -63z" />
<glyph unicode="+" horiz-adv-x="1011" d="M61 465v92h400v467h92v-467h397v-92h-397v-465h-92v465h-400z" />
<glyph unicode="," horiz-adv-x="186" d="M41 0v111h104v-111l-43 -123h-39v123h-22z" />
<glyph unicode="-" horiz-adv-x="555" d="M41 745v70h473v-70h-473z" />
<glyph unicode="." horiz-adv-x="186" d="M41 0v111h104v-111h-104z" />
<glyph unicode="/" horiz-adv-x="958" d="M0 -78l879 1569l79 -45l-878 -1569z" />
<glyph unicode="0" horiz-adv-x="1157" d="M61 502v321q0 140 69.5 259t189 188t260.5 69q140 0 259 -69t188 -188t69 -259v-321q0 -140 -69 -259t-188 -188t-259 -69q-141 0 -260.5 69t-189 188t-69.5 259zM154 502q0 -175 124.5 -299.5t301.5 -124.5q176 0 300 124.5t124 299.5v321q0 177 -123.5 300.5 t-300.5 123.5t-301.5 -123.5t-124.5 -300.5v-321zM276 397l66 -65l565 559l-65 63z" />
<glyph unicode="1" horiz-adv-x="329" d="M41 1194l158 158l69 -70v-1282h-92v1198l-70 -70z" />
<glyph unicode="2" horiz-adv-x="1206" d="M41 823q0 140 69 259t188 188t259 69q141 0 260.5 -69t188.5 -188t69 -259l-870 -731h940v-92h-1082v92l918 772q-15 162 -137 272.5t-287 110.5q-175 0 -299.5 -124t-124.5 -300h-92z" />
<glyph unicode="3" horiz-adv-x="854" d="M20 -10v92h291q161 0 275 114t114 275t-114 275t-275 114v92q61 0 104.5 44t43.5 104q0 61 -43 104t-105 43h-213v92h213q99 0 169.5 -70t70.5 -169q0 -101 -78 -176q98 -33 178 -113q142 -142 142 -340t-142 -340q-138 -141 -340 -141h-291z" />
<glyph unicode="4" horiz-adv-x="886" d="M0 446l631 883l88 -43v-799h137v-92h-137v-395h-92v395h-521zM143 487h484v678z" />
<glyph unicode="5" horiz-adv-x="993" d="M82 -10v92h375q160 0 270 113q113 113 113 270q0 154 -113 270q-111 111 -270 111h-357v493h521v-92h-428v-309h264q97 0 184.5 -37.5t151.5 -100.5t101.5 -151t37.5 -184q0 -97 -37.5 -184.5t-101.5 -151.5t-151.5 -101.5t-184.5 -37.5h-375z" />
<glyph unicode="6" horiz-adv-x="1071" d="M61 465v401q0 129 63.5 238t172.5 172t238 63v-92q-158 0 -269.5 -111.5t-111.5 -269.5v-121q66 89 166 141t215 52q97 0 184.5 -37.5t151.5 -100.5t101.5 -151t37.5 -184q0 -97 -37.5 -184.5t-101.5 -151.5t-151.5 -101.5t-184.5 -37.5q-129 0 -238 63.5t-172.5 173 t-63.5 238.5zM154 465q0 -158 111.5 -270.5t269.5 -112.5q159 0 271 112t112 271q0 158 -111.5 269.5t-271.5 111.5q-158 0 -269.5 -111.5t-111.5 -269.5z" />
<glyph unicode="7" horiz-adv-x="843" d="M0 1247v92h776l68 -34l-680 -1305h-105l652 1247h-711z" />
<glyph unicode="8" horiz-adv-x="1071" d="M61 465q0 150 86.5 272t223.5 172q-82 72 -82 185q0 101 72.5 173t173.5 72q103 0 175 -72t72 -173q0 -110 -82 -185q137 -50 223.5 -172t86.5 -272q0 -97 -37.5 -184.5t-101.5 -151.5t-151.5 -101.5t-184.5 -37.5q-129 0 -238 63.5t-172.5 173t-63.5 238.5zM154 465 q0 -160 110 -270q113 -113 271 -113q160 0 270 113q113 110 113 270q0 157 -113 270q-111 111 -270 111q-157 0 -271 -111q-110 -113 -110 -270zM381 1094q0 -64 45.5 -110t108.5 -46q64 0 109.5 45.5t45.5 110.5q0 63 -45.5 108t-109.5 45q-63 0 -108.5 -45t-45.5 -108z " />
<glyph unicode="9" horiz-adv-x="1071" d="M61 866q0 129 63.5 238t172.5 172t238 63q97 0 184.5 -37.5t151.5 -100.5t101.5 -151t37.5 -184v-401q0 -97 -37.5 -184.5t-101.5 -151.5t-151.5 -101.5t-184.5 -37.5v92q159 0 271 112t112 271v119q-66 -90 -166.5 -141.5t-216.5 -51.5q-129 0 -238 63.5t-172.5 173 t-63.5 238.5zM154 866q0 -158 111.5 -270.5t269.5 -112.5q159 0 271 112t112 271q0 158 -111.5 269.5t-271.5 111.5q-158 0 -269.5 -111.5t-111.5 -269.5z" />
<glyph unicode=":" horiz-adv-x="186" d="M41 0v111h104v-111h-104zM41 809v111h104v-111h-104z" />
<glyph unicode=";" horiz-adv-x="186" d="M41 0h22v-123h39l43 123v111h-104v-111zM41 809v111h104v-111h-104z" />
<glyph unicode="&#x3c;" horiz-adv-x="333" d="M0 514l250 557l84 -39l-234 -518l234 -518l-84 -39z" />
<glyph unicode="=" horiz-adv-x="864" d="M41 291v82h819v-82h-819zM41 633v82h819v-82h-819z" />
<glyph unicode="&#x3e;" horiz-adv-x="333" d="M0 -4l233 518l-233 518l84 39l250 -557l-250 -557z" />
<glyph unicode="?" horiz-adv-x="919" d="M41 1014q0 173 122.5 296.5t295.5 123.5t296.5 -123.5t123.5 -296.5q0 -148 -93.5 -262.5t-234.5 -145.5v-301h-92v383q131 0 229 95.5t98 230.5q0 131 -96 229t-231 98q-133 0 -227 -95t-99 -232h-92zM459 0h92v160h-92v-160z" />
<glyph unicode="@" horiz-adv-x="1236" d="M41 707q0 239 168 407q170 170 409 170q240 0 410 -170q168 -168 168 -407q0 -111 -37 -209q-9 -25 -39 -78h-135v78h84q45 98 45 209q0 204 -145.5 349.5t-350.5 145.5t-350 -145.5t-145 -349.5q0 -135 66 -249.5t180 -181.5t249 -67q111 0 207 47q41 17 80 45v-98 q-44 -25 -80 -37q-103 -39 -207 -39q-236 0 -409 170q-168 168 -168 410zM332 707q0 119 84 202.5t202 83.5q119 0 203 -84t84 -202v-287h-80v88q-82 -88 -207 -88q-119 0 -202.5 83.5t-83.5 203.5zM410 707q0 -86 61 -147.5t147 -61.5q85 0 146 61t61 148q0 86 -60.5 146 t-146.5 60t-147 -60t-61 -146z" />
<glyph unicode="A" horiz-adv-x="1146" d="M0 0l537 1434h92l518 -1434h-92l-473 1309l-324 -867h315v-51h-335l-146 -391h-92z" />
<glyph unicode="B" horiz-adv-x="1290" d="M82 0v1425h620q100 0 170 -69.5t70 -169.5q0 -101 -74 -172q159 -52 260 -188t101 -306q0 -106 -41 -202t-111 -166t-166 -111t-202 -41h-627zM174 92h535q179 0 303.5 125t124.5 303t-126.5 302t-308.5 124v92q62 0 105 43t43 105q0 61 -43 104t-105 43h-528v-1241z" />
<glyph unicode="C" horiz-adv-x="1269" d="M61 559v301q0 156 77 288t209 209t288 77t288 -77t208.5 -209t76.5 -288h-92q0 131 -64.5 241.5t-175 175t-241.5 64.5t-241.5 -64.5t-175 -175t-64.5 -241.5v-301q0 -199 141 -340t340 -141t340 141t141 340h92q0 -117 -45.5 -223t-122 -182.5t-182.5 -122t-223 -45.5 q-156 0 -288 76.5t-209 208.5t-77 288z" />
<glyph unicode="D" horiz-adv-x="1290" d="M82 0v1425h434q193 0 357.5 -95.5t260 -259.5t95.5 -357q0 -145 -56.5 -277t-152 -227.5t-227.5 -152t-277 -56.5h-434zM174 92h342q168 0 311 83.5t226.5 226.5t83.5 311t-83.5 311t-226.5 226t-311 83h-342v-1241z" />
<glyph unicode="E" horiz-adv-x="983" d="M82 0v1425h860v-92h-768v-289h481v-81h-481v-871h768v-92h-860z" />
<glyph unicode="F" horiz-adv-x="942" d="M82 0v1425h860v-92h-768v-289h481v-81h-481v-963h-92z" />
<glyph unicode="G" horiz-adv-x="1269" d="M61 563v301q0 156 77 288t209 209t288 77t288 -77t208.5 -209t76.5 -288h-92q0 131 -64.5 242t-175 175.5t-241.5 64.5t-241.5 -64.5t-175 -175.5t-64.5 -242v-301q0 -199 141 -340t340 -141q177 0 310.5 113.5t164.5 285.5h-188v82h194h92q0 -117 -45.5 -223 t-122 -182.5t-182.5 -122t-223 -45.5q-156 0 -288 76.5t-209 208.5t-77 288z" />
<glyph unicode="H" horiz-adv-x="1310" d="M82 0v1425h92v-381h963v381h92v-1425h-92v963h-963v-963h-92z" />
<glyph unicode="I" horiz-adv-x="655" d="M41 0v92h240v1251h-240v82h573v-82h-241v-1251h241v-92h-573z" />
<glyph unicode="J" horiz-adv-x="1228" d="M0 559h92q0 -199 141 -340t340 -141q131 0 242 64.5t175.5 175t64.5 241.5v784h-768v82h860v-866q0 -156 -77 -288t-209 -208.5t-288 -76.5q-117 0 -223 45.5t-182.5 122t-122 182.5t-45.5 223z" />
<glyph unicode="K" horiz-adv-x="1228" d="M82 0v1425h92v-868l920 868h135l-756 -712l756 -713h-119l-696 657l-240 -227v-430h-92z" />
<glyph unicode="L" horiz-adv-x="942" d="M82 0v1425h92v-1333h768v-92h-860z" />
<glyph unicode="M" horiz-adv-x="1310" d="M82 0v1425h92l481 -407l482 407h92v-1425h-92v1337l-424 -370h-113l-426 370v-1337h-92z" />
<glyph unicode="N" horiz-adv-x="1310" d="M82 0v1425h92l963 -1300v1300h92v-1425h-92l-963 1300v-1300h-92z" />
<glyph unicode="O" horiz-adv-x="1269" d="M61 563v301q0 156 77 288t209 209t288 77t288 -77t208.5 -209t76.5 -288v-301q0 -117 -45.5 -223t-122 -182.5t-182.5 -122t-223 -45.5q-156 0 -288 76.5t-209 208.5t-77 288zM154 563q0 -199 141 -340t340 -141t340 141t141 340v301q0 131 -64.5 242t-175 175.5 t-241.5 64.5t-241.5 -64.5t-175 -175.5t-64.5 -242v-301z" />
<glyph unicode="P" horiz-adv-x="1269" d="M82 0v1425h627q106 0 202 -41t166 -111t111 -166t41 -202t-41 -202t-111 -165t-166 -110t-202 -41h-535v-387h-92zM174 479h535q178 0 303 124.5t125 301.5q0 117 -57 215.5t-155.5 155.5t-215.5 57h-535v-854z" />
<glyph unicode="Q" horiz-adv-x="1300" d="M82 563v301q0 156 76.5 288t208.5 209t288 77t288 -77t209 -209t77 -288v-301q0 -215 -144 -379l183 -182l-66 -65l-182 184q-157 -131 -365 -131q-117 0 -223 45.5t-182.5 122t-122 182.5t-45.5 223zM174 563q0 -199 141 -340t340 -141q170 0 299 104l-157 162l65 66 l160 -164q115 134 115 313v301q0 131 -64.5 242t-175.5 175.5t-242 64.5t-241.5 -64.5t-175 -175.5t-64.5 -242v-301z" />
<glyph unicode="R" horiz-adv-x="1228" d="M82 0v1425h627q106 0 202 -41t166 -111t111 -166t41 -202t-41 -202t-111 -165t-166 -110t-202 -41h-177l410 -387h-133l-410 387h-225v-387h-92zM174 479h535q177 0 302.5 124.5t125.5 301.5q0 178 -125.5 303t-302.5 125h-535v-854z" />
<glyph unicode="S" horiz-adv-x="1208" d="M0 0v92h627q177 0 302.5 125t125.5 303q0 177 -125.5 301.5t-302.5 124.5h-258q-99 0 -169.5 70.5t-70.5 169.5q0 100 70 169.5t170 69.5h491v-92h-491q-62 0 -105 -43t-43 -104q0 -60 43.5 -104t104.5 -44h258q106 0 202 -41t166 -110t111 -165t41 -202t-41 -202 t-111 -166t-166 -111t-202 -41h-627z" />
<glyph unicode="T" horiz-adv-x="1142" d="M0 1333v92h1143v-92h-529v-1333h-92v1333h-522z" />
<glyph unicode="U" horiz-adv-x="1310" d="M82 559v866h92v-866q0 -199 141 -340t340 -141q131 0 242 64.5t175.5 175t64.5 241.5v866h92v-866q0 -156 -77 -288t-209 -208.5t-288 -76.5q-117 0 -223 45.5t-182.5 122t-122 182.5t-45.5 223z" />
<glyph unicode="V" horiz-adv-x="1146" d="M0 1425h92l481 -1314l482 1314h92l-529 -1439h-92z" />
<glyph unicode="W" horiz-adv-x="1480" d="M0 1425h92l481 -1314l121 331h92l121 -331l482 1314h92l-527 -1439h-92l-121 331l-123 -331h-92z" />
<glyph unicode="X" horiz-adv-x="1157" d="M0 0l522 713l-522 712h115l465 -634l462 634h115l-520 -712l520 -713h-113l-464 635l-465 -635h-115z" />
<glyph unicode="Y" horiz-adv-x="1146" d="M0 1425h92l481 -933l482 933h92l-529 -1024v-401h-92v401z" />
<glyph unicode="Z" horiz-adv-x="1228" d="M41 0v92l1003 1241h-888v92h993v-92l-1004 -1241h1043v-92h-1147z" />
<glyph unicode="[" horiz-adv-x="331" d="M82 0v1425h209v-92h-117v-1241h117v-92h-209z" />
<glyph unicode="\" horiz-adv-x="999" d="M0 1495l80 45l919 -1642l-79 -45z" />
<glyph unicode="]" horiz-adv-x="331" d="M41 0v92h117v1241h-117v92h209v-1425h-209z" />
<glyph unicode="^" horiz-adv-x="569" d="M0 1149l285 285l284 -283l-65 -66l-219 218l-219 -220z" />
<glyph unicode="_" horiz-adv-x="952" d="M41 -14h870v-92h-870v92z" />
<glyph unicode="`" horiz-adv-x="253" d="M0 1417l84 39l170 -371l-82 -38z" />
<glyph unicode="a" d="M41 502q0 141 69 260.5t188 188.5t259 69q215 0 366.5 -151.5t151.5 -366.5v-502h-92v209q-72 -103 -184 -163t-242 -60q-140 0 -259 69t-188 188t-69 259zM133 502q0 -175 124.5 -299.5t299.5 -124.5q177 0 301.5 124.5t124.5 299.5q0 177 -124.5 301.5t-301.5 124.5 q-175 0 -299.5 -124.5t-124.5 -301.5z" />
<glyph unicode="b" horiz-adv-x="1024" d="M61 0v1425h93v-510q137 105 311 105q215 0 366.5 -151.5t151.5 -366.5q0 -140 -69 -259t-188.5 -188t-260.5 -69q-175 0 -311 104v-90h-93zM154 215q60 -64 140.5 -100.5t170.5 -36.5q177 0 301.5 124.5t124.5 299.5q0 177 -124.5 301.5t-301.5 124.5q-90 0 -170.5 -36.5 t-140.5 -100.5v-576z" />
<glyph unicode="c" horiz-adv-x="901" d="M41 502q0 215 151.5 366.5t366.5 151.5q197 0 342 -129l-65 -66q-121 103 -277 103q-177 0 -301.5 -124.5t-124.5 -301.5q0 -175 124.5 -299.5t301.5 -124.5q157 0 277 102l65 -65q-145 -129 -342 -129q-141 0 -260.5 69t-188.5 188t-69 259z" />
<glyph unicode="d" horiz-adv-x="1024" d="M41 502q0 141 69 260.5t188 188.5t259 69q176 0 313 -105v510h93v-1425h-93v90q-136 -104 -313 -104q-140 0 -259 69t-188 188t-69 259zM133 502q0 -175 124.5 -299.5t299.5 -124.5q186 0 313 137v576q-127 137 -313 137q-175 0 -299.5 -124.5t-124.5 -301.5z" />
<glyph unicode="e" horiz-adv-x="1017" d="M41 502q0 141 69 260.5t188 188.5t259 69q127 0 237.5 -57.5t182.5 -155.5l-68 -66h-522v82h451q-121 105 -281 105q-175 0 -299.5 -124.5t-124.5 -301.5q0 -175 124.5 -299.5t299.5 -124.5q109 0 201.5 50t150.5 136l68 -65q-72 -98 -182.5 -155.5t-237.5 -57.5 q-140 0 -259 69t-188 188t-69 259z" />
<glyph unicode="f" horiz-adv-x="313" d="M51 0v1200q0 109 76.5 185.5t185.5 76.5v-92q-71 0 -120.5 -50t-49.5 -120v-176h80v-82h-80v-942h-92z" />
<glyph unicode="g" horiz-adv-x="1024" d="M41 502q0 215 151.5 366.5t366.5 151.5q174 0 311 -105v109h93v-1354q-41 -50 -93 -90q-136 -104 -311 -104q-102 0 -195 38t-163 105q-37 37 -66 76l144 256l79 -45l-112 -201q60 -64 141 -100.5t172 -36.5q90 0 170.5 36.5t140.5 100.5v385q-136 -104 -311 -104 q-141 0 -260.5 69t-188.5 188t-69 259zM133 502q0 -175 124.5 -299.5t301.5 -124.5q90 0 170.5 36.5t140.5 100.5v576q-60 64 -140.5 100.5t-170.5 36.5q-177 0 -301.5 -124.5t-124.5 -301.5z" />
<glyph unicode="h" horiz-adv-x="1024" d="M61 0v1425h93v-510q137 105 311 105q215 0 366.5 -151.5t151.5 -366.5v-502h-92v502q0 177 -124.5 301.5t-301.5 124.5q-90 0 -170.5 -36.5t-140.5 -100.5v-791h-93z" />
<glyph unicode="i" horiz-adv-x="215" d="M61 0v1024h93v-1024h-93zM61 1204v92h93v-92h-93z" />
<glyph unicode="j" horiz-adv-x="186" d="M-260 -432q186 0 313 137v1319h92v-1354q-42 -52 -92 -90q-136 -104 -313 -104v92zM53 1204v92h92v-92h-92z" />
<glyph unicode="k" horiz-adv-x="843" d="M61 0v1425h93v-882l565 481h125l-504 -430l504 -594h-99l-464 545l-127 -113v-432h-93z" />
<glyph unicode="l" horiz-adv-x="215" d="M61 0v1425h93v-1425h-93z" />
<glyph unicode="m" horiz-adv-x="1751" d="M61 0v1024h93v-164q60 76 148.5 120t189.5 44q124 0 226 -65t156 -171q55 106 158.5 171t227.5 65q178 0 304 -126t126 -304v-594h-93v594q0 140 -99 239t-238 99q-140 0 -239 -99t-99 -239v-594h-93v594q0 140 -99 239t-238 99q-140 0 -239 -99t-99 -239v-594h-93z" />
<glyph unicode="n" horiz-adv-x="983" d="M61 0v1024h93v-164q60 76 148.5 120t189.5 44q178 0 304 -126t126 -304v-594h-93v594q0 140 -99 239t-238 99q-140 0 -239 -99t-99 -239v-594h-93z" />
<glyph unicode="o" d="M41 506q0 141 69 260.5t188 188.5t259 69q215 0 366.5 -151.5t151.5 -366.5q0 -140 -69 -259t-188.5 -188t-260.5 -69q-140 0 -259 69t-188 188t-69 259zM133 506q0 -175 124.5 -299.5t299.5 -124.5q177 0 301.5 124.5t124.5 299.5q0 177 -124.5 301.5t-301.5 124.5 q-175 0 -299.5 -124.5t-124.5 -301.5z" />
<glyph unicode="p" horiz-adv-x="1024" d="M61 -436v1460h93v-109q137 105 311 105q215 0 366.5 -151.5t151.5 -366.5q0 -140 -69 -259t-188.5 -188t-260.5 -69q-175 0 -311 104v-526h-93zM154 215q60 -64 140.5 -100.5t170.5 -36.5q177 0 301.5 124.5t124.5 299.5q0 177 -124.5 301.5t-301.5 124.5 q-90 0 -170.5 -36.5t-140.5 -100.5v-576z" />
<glyph unicode="q" horiz-adv-x="1024" d="M41 502q0 141 69 260.5t188 188.5t259 69q173 0 313 -105v109h93v-1460h-93v526q-139 -104 -313 -104q-140 0 -259 69t-188 188t-69 259zM133 502q0 -175 124.5 -299.5t299.5 -124.5q91 0 172 36.5t141 100.5v576q-60 64 -141 100.5t-172 36.5q-175 0 -299.5 -124.5 t-124.5 -301.5z" />
<glyph unicode="r" horiz-adv-x="350" d="M61 0v1024h93v-76q82 76 196 76v-92q-77 0 -133.5 -51.5t-62.5 -126.5v-754h-93z" />
<glyph unicode="s" horiz-adv-x="919" d="M0 -6v82h463q138 0 236 97.5t98 234.5q0 138 -98 235.5t-236 97.5h-230q-58 0 -99.5 41.5t-41.5 100.5t41 100t100 41h500v-82h-500q-25 0 -42 -17t-17 -42t17 -42.5t42 -17.5h230q172 0 294 -121.5t122 -293.5q0 -170 -122 -292t-294 -122h-463z" />
<glyph unicode="t" horiz-adv-x="376" d="M41 942v82h59v223h93v-223h143v-82h-143v-942h-93v942h-59z" />
<glyph unicode="u" d="M41 506v518h92v-518q0 -175 124.5 -299.5t299.5 -124.5q177 0 301.5 124.5t124.5 299.5v518h92v-518q0 -140 -69 -259t-188.5 -188t-260.5 -69q-140 0 -259 69t-188 188t-69 259z" />
<glyph unicode="v" horiz-adv-x="1034" d="M0 1024h100l416 -913l418 913h100l-467 -1024h-100z" />
<glyph unicode="w" horiz-adv-x="1437" d="M0 1024h100l418 -913l150 331h102l150 -331l415 913h103l-467 -1024h-101l-151 332l-152 -332h-100z" />
<glyph unicode="x" horiz-adv-x="1146" d="M0 0l1018 1024h129l-1016 -1024h-131zM0 1024h131l379 -383l-66 -63zM637 383l65 66l445 -449h-129z" />
<glyph unicode="y" horiz-adv-x="880" d="M20 -244q83 22 151 74t110 125l118 256l-379 813h103l328 -705l327 705h103l-486 -1038q-6 -20 -33 -72q-69 -126 -192 -195q-67 -40 -150 -59v96z" />
<glyph unicode="z" horiz-adv-x="919" d="M20 -2v92l707 846h-623v92h732v-92l-709 -846h772v-92h-879z" />
<glyph unicode="{" horiz-adv-x="370" d="M0 659v93q58 0 98.5 40t40.5 99v303q0 95 68.5 163t163.5 68v-92q-59 0 -99.5 -40.5t-40.5 -98.5v-303q0 -114 -92 -186q42 -31 67 -80t25 -105v-303q0 -58 40.5 -98.5t99.5 -40.5v-92q-95 0 -163.5 68t-68.5 163v303q0 56 -37.5 94.5t-101.5 44.5z" />
<glyph unicode="|" horiz-adv-x="215" d="M61 -94v1569h93v-1569h-93z" />
<glyph unicode="}" horiz-adv-x="370" d="M0 -14v92q58 0 98.5 40t40.5 99v303q0 56 25 105t67 80q-92 72 -92 186v303q0 58 -40.5 98.5t-98.5 40.5v92q95 0 163 -68t68 -163v-303q0 -58 40.5 -98.5t99.5 -40.5v-93q-64 -6 -102 -44.5t-38 -94.5v-303q0 -95 -68 -163t-163 -68z" />
<glyph unicode="~" horiz-adv-x="784" d="M0 643l283 285l219 -219l219 219l63 -66l-282 -284l-219 219l-220 -219z" />
<glyph unicode="&#xa1;" horiz-adv-x="225" d="M72 -408v1129h92v-1129h-92zM72 866v160h92v-160h-92z" />
<glyph unicode="&#xa2;" horiz-adv-x="921" d="M41 502q0 197 129 342t322 170v104h92v-98q181 -9 317 -129l-65 -66q-114 95 -252 101v-848q145 9 252 102l65 -65q-132 -120 -317 -129v-105h-92v111q-126 15 -229.5 86.5t-162.5 183t-59 240.5zM133 502q0 -158 102.5 -276.5t256.5 -143.5v840q-154 -23 -256.5 -142 t-102.5 -278z" />
<glyph unicode="&#xa3;" horiz-adv-x="942" />
<glyph unicode="&#xa4;" horiz-adv-x="821" d="M61 111q0 95 48.5 175.5t128.5 127.5q-80 45 -128.5 125.5t-48.5 175.5t48.5 176.5t128.5 126.5q-80 45 -128.5 126.5t-48.5 176.5h93q0 -106 76 -181t182 -75t181 75t75 181h92q0 -95 -48.5 -176.5t-127.5 -126.5q79 -45 127.5 -126.5t48.5 -176.5t-48 -175.5 t-128 -125.5q80 -47 128 -127.5t48 -175.5h-92q0 106 -75 181t-181 75t-182 -75t-76 -181h-93zM154 715q0 -106 76 -181t182 -75t181 75t75 181t-75 182t-181 76t-182 -76t-76 -182z" />
<glyph unicode="&#xa5;" horiz-adv-x="813" d="M61 1057l66 65l279 -278l280 278l66 -65l-297 -295v-94h198v-93h-198v-83h198v-93h-198v-227h-93v227h-196v93h196v83h-196v93h196v88z" />
<glyph unicode="&#xa6;" horiz-adv-x="1705" />
<glyph unicode="&#xa7;" horiz-adv-x="712" d="M61 963q0 42 13 92q39 139 164 211l-9 14q-47 77 -47 170q0 48 15 94q39 140 163 211l46 -80q-94 -56 -121 -155q-11 -42 -11 -70q0 -66 35 -125l297 -522q45 -77 45 -172q0 -45 -12 -92q-39 -139 -164 -211l8 -15q47 -80 47 -172q0 -45 -12 -92q-38 -137 -164 -211 l-47 80q94 56 121 156q10 38 10 69q0 66 -35 125l-297 523q-45 77 -45 172zM154 961q0 -63 32 -125l244 -428q95 56 119 155q10 38 10 70q0 61 -33 125l-243 428q-95 -56 -119 -156q-10 -38 -10 -69z" />
<glyph unicode="&#xa8;" horiz-adv-x="659" d="M41 1161v111h104v-111h-104zM514 1161v111h104v-111h-104z" />
<glyph unicode="&#xaa;" horiz-adv-x="616" d="M41 1006q0 110 78 189t188 79q112 0 190 -78.5t78 -189.5v-261h-92v58q-77 -64 -176 -64q-110 0 -188 78.5t-78 188.5zM133 1006q0 -72 51 -123.5t123 -51.5q73 0 124.5 51.5t51.5 123.5t-51.5 124t-124.5 52q-72 0 -123 -52t-51 -124z" />
<glyph unicode="&#xab;" horiz-adv-x="559" d="M0 510l250 557l84 -39l-234 -518l234 -518l-84 -39zM225 510l250 557l84 -39l-233 -518l233 -518l-84 -39z" />
<glyph unicode="&#xac;" horiz-adv-x="952" d="M41 735v80h870v-328h-82v248h-788z" />
<glyph unicode="&#xad;" horiz-adv-x="555" d="M41 745v70h473v-70h-473z" />
<glyph unicode="&#xb0;" horiz-adv-x="616" d="M41 1006q0 110 78 189t188 79q112 0 190 -78.5t78 -189.5t-78 -189t-190 -78q-110 0 -188 78.5t-78 188.5zM133 1006q0 -72 51 -123.5t123 -51.5q73 0 124.5 51.5t51.5 123.5t-51.5 124t-124.5 52q-72 0 -123 -52t-51 -124z" />
<glyph unicode="&#xb1;" horiz-adv-x="929" d="M0 -29h889v-92h-889v92zM0 467v92h397v465h92v-465h400v-92h-400v-467h-92v467h-397z" />
<glyph unicode="&#xb2;" horiz-adv-x="659" d="M41 743v97l467 350v8q0 71 -52 119.5t-126 48.5q-82 0 -138.5 -57.5t-56.5 -141.5h-92q0 120 84 207q81 84 203 84q119 0 205 -86q79 -82 79 -205v-22l-424 -309h428v-93h-577z" />
<glyph unicode="&#xb3;" horiz-adv-x="540" d="M41 743v93h199q69 0 118.5 49.5t49.5 118.5t-49.5 118t-118.5 49v93q19 0 31 12t12 31q0 17 -12 29t-31 12h-170v92h170q57 0 96 -38.5t39 -94.5q0 -40 -19 -72q64 -31 104 -93.5t40 -137.5q0 -107 -76.5 -184t-183.5 -77h-199z" />
<glyph unicode="&#xb4;" horiz-adv-x="335" d="M41 1085l170 371l84 -39l-172 -370z" />
<glyph unicode="&#xb5;" horiz-adv-x="1157" d="M61 -436v1460h93v-518q0 -175 124.5 -299.5t299.5 -124.5q177 0 301.5 124.5t124.5 299.5v518h92v-518q0 -140 -69 -259t-188.5 -188t-260.5 -69q-130 0 -242 60t-182 163v-649h-93z" />
<glyph unicode="&#xb6;" horiz-adv-x="1415" d="M61 899q0 213 152 361.5t369 148.5h772v-90h-244v-1825h-92v1825h-219v-1827h-92v895h-125q-142 0 -261.5 67.5t-189.5 185.5t-70 259zM154 899q0 -177 124.5 -298.5t303.5 -121.5h125v840h-125q-179 0 -303.5 -121t-124.5 -299z" />
<glyph unicode="&#xb7;" horiz-adv-x="165" d="M41 809v111h84v-111h-84z" />
<glyph unicode="&#xb8;" horiz-adv-x="188" d="M39 -14q46 0 79.5 -34t33.5 -81t-33.5 -80t-79.5 -33v72q17 0 29 12t12 29t-12 30t-29 13v72z" />
<glyph unicode="&#xb9;" horiz-adv-x="284" d="M41 1315l129 129l74 -74v-616h-92v542l-46 -45z" />
<glyph unicode="&#xba;" horiz-adv-x="423" d="M41 915v355q0 72 49.5 122t120.5 50q72 0 122 -50t50 -122v-355q0 -71 -50 -121.5t-122 -50.5q-70 0 -120 50.5t-50 121.5zM133 915q0 -32 23 -55.5t55 -23.5q33 0 56.5 23t23.5 56v355q0 34 -23 57t-57 23q-32 0 -55 -23t-23 -57v-355z" />
<glyph unicode="&#xbb;" horiz-adv-x="573" d="M14 -8l234 518l-234 518l84 39l250 -557l-250 -557zM240 -8l233 518l-233 518l84 39l249 -557l-249 -557z" />
<glyph unicode="&#xbc;" horiz-adv-x="770" d="M41 -27l602 1512l86 -33l-604 -1511zM57 1315l129 129l74 -74v-616h-92v542l-45 -45zM360 227l232 441l67 -29v-387h60v-62h-60v-190h-71v190h-166zM451 252h137v264z" />
<glyph unicode="&#xbd;" horiz-adv-x="1046" d="M41 -27l602 1512l86 -33l-604 -1511zM45 1315l129 129l74 -74v-616h-92v542l-45 -45zM428 0v96l467 324v8q0 71 -52 119.5t-126 48.5q-82 0 -138.5 -57.5t-56.5 -141.5h-92q0 120 84 207q81 84 203 84q119 0 205 -86q79 -82 79 -205v-22l-423 -283h428v-92h-578z" />
<glyph unicode="&#xbe;" horiz-adv-x="923" d="M41 743v93h199q69 0 118.5 49.5t49.5 118.5t-49.5 118t-118.5 49v93q19 0 31 12t12 31q0 17 -12 29t-31 12h-170v92h170q57 0 96 -38.5t39 -94.5q0 -40 -19 -72q64 -31 104 -93.5t40 -137.5q0 -107 -76.5 -184t-183.5 -77h-199zM182 -27l602 1512l86 -33l-604 -1511z M440 229l310 433l90 -44v-354h43v-92h-43v-172h-92v172h-205zM578 264h170v238z" />
<glyph unicode="&#xbf;" horiz-adv-x="919" d="M41 164q0 148 93.5 262t234.5 145v301h92v-383q-131 0 -229.5 -95t-98.5 -230q0 -131 96.5 -229.5t231.5 -98.5q133 0 226.5 95.5t98.5 232.5h93q0 -173 -122.5 -296.5t-295.5 -123.5t-296.5 123.5t-123.5 296.5zM369 1018v160h92v-160h-92z" />
<glyph unicode="&#xc0;" horiz-adv-x="1146" d="M0 0l537 1434h92l518 -1434h-92l-473 1309l-324 -867h315v-51h-335l-146 -391h-92zM356 1866l84 39l170 -371l-82 -39z" />
<glyph unicode="&#xc1;" horiz-adv-x="1146" d="M0 0l537 1434h92l518 -1434h-92l-473 1309l-324 -867h315v-51h-335l-146 -391h-92zM543 1534l170 371l84 -39l-172 -371z" />
<glyph unicode="&#xc2;" horiz-adv-x="1146" d="M0 0l537 1434h92l518 -1434h-92l-473 1309l-324 -867h315v-51h-335l-146 -391h-92zM287 1561l284 284l285 -282l-65 -66l-220 217l-219 -219z" />
<glyph unicode="&#xc3;" horiz-adv-x="1146" d="M0 0l537 1434h92l518 -1434h-92l-473 1309l-324 -867h315v-51h-335l-146 -391h-92zM199 1559l282 284l219 -219l220 219l63 -65l-283 -285l-219 219l-219 -219z" />
<glyph unicode="&#xc4;" horiz-adv-x="1146" d="M0 0l537 1434h92l518 -1434h-92l-473 1309l-324 -867h315v-51h-335l-146 -391h-92zM285 1599v111h104v-111h-104zM758 1599v111h104v-111h-104z" />
<glyph unicode="&#xc5;" horiz-adv-x="1146" d="M0 0l537 1434h92l518 -1434h-92l-473 1309l-324 -867h315v-51h-335l-146 -391h-92zM412 1628q0 72 49.5 122t120.5 50t121.5 -50t50.5 -122q0 -70 -50.5 -120t-121.5 -50q-70 0 -120 50t-50 120zM504 1628q0 -34 24 -55q23 -23 54 -23q34 0 57 23t23 55t-23 58 q-22 22 -57 22q-32 0 -55 -23t-23 -57z" />
<glyph unicode="&#xc6;" horiz-adv-x="972" d="M0 0l537 1425h434v-92h-338v-289h194v-81h-194v-871h338v-92h-430v1200l-283 -758h199v-51h-219l-146 -391h-92z" />
<glyph unicode="&#xc7;" horiz-adv-x="1269" d="M61 559v301q0 156 77 288t209 209t288 77t288 -77t208.5 -209t76.5 -288h-92q0 131 -64.5 241.5t-175 175t-241.5 64.5t-241.5 -64.5t-175 -175t-64.5 -241.5v-301q0 -199 141 -340t340 -141t340 141t141 340h92q0 -117 -45.5 -223t-122 -182.5t-182.5 -122t-223 -45.5 q-156 0 -288 76.5t-209 208.5t-77 288zM678 -18q44 0 75 -32t31 -77q0 -44 -31 -75t-75 -31v61q19 0 32 13t13 32q0 20 -13 33.5t-32 13.5v62z" />
<glyph unicode="&#xc8;" horiz-adv-x="983" d="M82 0v1425h860v-92h-768v-289h481v-81h-481v-871h768v-92h-860zM356 1866l84 39l170 -371l-82 -39z" />
<glyph unicode="&#xc9;" horiz-adv-x="983" d="M82 0v1425h860v-92h-768v-289h481v-81h-481v-871h768v-92h-860zM465 1534l170 371l84 -39l-172 -371z" />
<glyph unicode="&#xca;" horiz-adv-x="983" d="M82 0v1425h860v-92h-768v-289h481v-81h-481v-871h768v-92h-860zM184 1561l285 284l285 -282l-66 -66l-219 217l-219 -219z" />
<glyph unicode="&#xcb;" horiz-adv-x="983" d="M82 0v1425h860v-92h-768v-289h481v-81h-481v-871h768v-92h-860zM342 1466v111h84v-111h-84zM666 1466v111h84v-111h-84z" />
<glyph unicode="&#xcc;" horiz-adv-x="655" d="M41 0v92h240v1251h-240v82h573v-82h-241v-1251h241v-92h-573zM111 1823l84 39l170 -371l-82 -39z" />
<glyph unicode="&#xcd;" horiz-adv-x="655" d="M41 0v92h240v1251h-240v82h573v-82h-241v-1251h241v-92h-573zM262 1556l170 371l84 -39l-172 -370z" />
<glyph unicode="&#xce;" horiz-adv-x="655" d="M41 0v92h240v1251h-240v82h573v-82h-241v-1251h241v-92h-573zM41 1526l285 284l284 -282l-65 -66l-219 217l-220 -219z" />
<glyph unicode="&#xcf;" horiz-adv-x="655" d="M41 0v92h240v1251h-240v82h573v-82h-241v-1251h241v-92h-573zM59 1522v110h105v-110h-105zM489 1522v110h105v-110h-105z" />
<glyph unicode="&#xd0;" horiz-adv-x="1325" d="M0 674v71h117v680h434q193 0 357.5 -95.5t260 -259.5t95.5 -357q0 -145 -56.5 -277t-152 -227.5t-227.5 -152t-277 -56.5h-434v674h-117zM209 92h342q168 0 311 83.5t226 226.5t83 311q0 126 -49 241t-132 198t-198 132t-241 49h-342v-588h264v-71h-264v-582z" />
<glyph unicode="&#xd1;" horiz-adv-x="1310" d="M82 0v1425h92l963 -1300v1300h92v-1425h-92l-963 1300v-1300h-92zM270 1505l283 285l219 -219l219 219l64 -66l-283 -284l-219 219l-219 -219z" />
<glyph unicode="&#xd2;" horiz-adv-x="1269" d="M61 563v301q0 156 77 288t209 209t288 77t288 -77t208.5 -209t76.5 -288v-301q0 -117 -45.5 -223t-122 -182.5t-182.5 -122t-223 -45.5q-156 0 -288 76.5t-209 208.5t-77 288zM154 563q0 -199 141 -340t340 -141t340 141t141 340v301q0 131 -64.5 242t-175 175.5 t-241.5 64.5t-241.5 -64.5t-175 -175.5t-64.5 -242v-301zM410 1866l84 39l170 -371l-82 -39z" />
<glyph unicode="&#xd3;" horiz-adv-x="1269" d="M61 563v301q0 156 77 288t209 209t288 77t288 -77t208.5 -209t76.5 -288v-301q0 -117 -45.5 -223t-122 -182.5t-182.5 -122t-223 -45.5q-156 0 -288 76.5t-209 208.5t-77 288zM154 563q0 -199 141 -340t340 -141t340 141t141 340v301q0 131 -64.5 242t-175 175.5 t-241.5 64.5t-241.5 -64.5t-175 -175.5t-64.5 -242v-301zM543 1534l170 371l84 -39l-172 -371z" />
<glyph unicode="&#xd4;" horiz-adv-x="1269" d="M61 563v301q0 156 77 288t209 209t288 77t288 -77t208.5 -209t76.5 -288v-301q0 -117 -45.5 -223t-122 -182.5t-182.5 -122t-223 -45.5q-156 0 -288 76.5t-209 208.5t-77 288zM154 563q0 -199 141 -340t340 -141t340 141t141 340v301q0 131 -64.5 242t-175 175.5 t-241.5 64.5t-241.5 -64.5t-175 -175.5t-64.5 -242v-301zM348 1561l285 284l285 -282l-66 -66l-219 217l-219 -219z" />
<glyph unicode="&#xd5;" horiz-adv-x="1269" d="M61 563v301q0 156 77 288t209 209t288 77t288 -77t208.5 -209t76.5 -288v-301q0 -117 -45.5 -223t-122 -182.5t-182.5 -122t-223 -45.5q-156 0 -288 76.5t-209 208.5t-77 288zM154 563q0 -199 141 -340t340 -141t340 141t141 340v301q0 131 -64.5 242t-175 175.5 t-241.5 64.5t-241.5 -64.5t-175 -175.5t-64.5 -242v-301zM242 1530l282 285l219 -220l220 220l63 -66l-283 -285l-219 219l-219 -219z" />
<glyph unicode="&#xd6;" horiz-adv-x="1269" d="M61 563v301q0 156 77 288t209 209t288 77t288 -77t208.5 -209t76.5 -288v-301q0 -117 -45.5 -223t-122 -182.5t-182.5 -122t-223 -45.5q-156 0 -288 76.5t-209 208.5t-77 288zM154 563q0 -199 141 -340t340 -141t340 141t141 340v301q0 131 -64.5 242t-175 175.5 t-241.5 64.5t-241.5 -64.5t-175 -175.5t-64.5 -242v-301zM346 1522v110h105v-110h-105zM819 1522v110h105v-110h-105z" />
<glyph unicode="&#xd7;" horiz-adv-x="1146" d="M0 0l1018 1024h129l-1016 -1024h-131zM0 1024h131l379 -383l-66 -63zM637 383l65 66l445 -449h-129z" />
<glyph unicode="&#xd8;" horiz-adv-x="688" d="M0 1452l84 33l604 -1512l-86 -32z" />
<glyph unicode="&#xd9;" horiz-adv-x="1310" d="M82 559v866h92v-866q0 -199 141 -340t340 -141q131 0 242 64.5t175.5 175t64.5 241.5v866h92v-866q0 -156 -77 -288t-209 -208.5t-288 -76.5q-117 0 -223 45.5t-182.5 122t-122 182.5t-45.5 223zM578 1794l84 39l169 -371l-81 -39z" />
<glyph unicode="&#xda;" horiz-adv-x="1310" d="M82 559v866h92v-866q0 -199 141 -340t340 -141q131 0 242 64.5t175.5 175t64.5 241.5v866h92v-866q0 -156 -77 -288t-209 -208.5t-288 -76.5q-117 0 -223 45.5t-182.5 122t-122 182.5t-45.5 223zM590 1462l170 371l84 -39l-172 -371z" />
<glyph unicode="&#xdb;" horiz-adv-x="1310" d="M82 559v866h92v-866q0 -199 141 -340t340 -141q131 0 242 64.5t175.5 175t64.5 241.5v866h92v-866q0 -156 -77 -288t-209 -208.5t-288 -76.5q-117 0 -223 45.5t-182.5 122t-122 182.5t-45.5 223zM369 1526l284 284l285 -282l-66 -66l-219 217l-219 -219z" />
<glyph unicode="&#xdc;" horiz-adv-x="1310" d="M82 559v866h92v-866q0 -199 141 -340t340 -141q131 0 242 64.5t175.5 175t64.5 241.5v866h92v-866q0 -156 -77 -288t-209 -208.5t-288 -76.5q-117 0 -223 45.5t-182.5 122t-122 182.5t-45.5 223zM367 1538v111h104v-111h-104zM840 1538v111h104v-111h-104z" />
<glyph unicode="&#xdd;" horiz-adv-x="1146" d="M0 1425h92l481 -933l482 933h92l-529 -1024v-401h-92v401zM508 1462l170 371l84 -39l-172 -371z" />
<glyph unicode="&#xde;" horiz-adv-x="671" />
<glyph unicode="&#xdf;" horiz-adv-x="1705" />
<glyph unicode="&#xe0;" d="M41 502q0 141 69 260.5t188 188.5t259 69q215 0 366.5 -151.5t151.5 -366.5v-502h-92v209q-72 -103 -184 -163t-242 -60q-140 0 -259 69t-188 188t-69 259zM133 502q0 -175 124.5 -299.5t299.5 -124.5q177 0 301.5 124.5t124.5 299.5q0 177 -124.5 301.5t-301.5 124.5 q-175 0 -299.5 -124.5t-124.5 -301.5zM346 1438l84 39l170 -371l-82 -39z" />
<glyph unicode="&#xe1;" d="M41 502q0 141 69 260.5t188 188.5t259 69q215 0 366.5 -151.5t151.5 -366.5v-502h-92v209q-72 -103 -184 -163t-242 -60q-140 0 -259 69t-188 188t-69 259zM133 502q0 -175 124.5 -299.5t299.5 -124.5q177 0 301.5 124.5t124.5 299.5q0 177 -124.5 301.5t-301.5 124.5 q-175 0 -299.5 -124.5t-124.5 -301.5zM465 1100l170 370l84 -38l-172 -371z" />
<glyph unicode="&#xe2;" d="M41 502q0 141 69 260.5t188 188.5t259 69q215 0 366.5 -151.5t151.5 -366.5v-502h-92v209q-72 -103 -184 -163t-242 -60q-140 0 -259 69t-188 188t-69 259zM133 502q0 -175 124.5 -299.5t299.5 -124.5q177 0 301.5 124.5t124.5 299.5q0 177 -124.5 301.5t-301.5 124.5 q-175 0 -299.5 -124.5t-124.5 -301.5zM274 1149l285 285l285 -283l-66 -66l-219 218l-219 -220zM276 1149l283 285l285 -285l-43 -43l-242 242l-240 -242z" />
<glyph unicode="&#xe3;" d="M41 502q0 141 69 260.5t188 188.5t259 69q215 0 366.5 -151.5t151.5 -366.5v-502h-92v209q-72 -103 -184 -163t-242 -60q-140 0 -259 69t-188 188t-69 259zM125 1145l283 285l219 -220l219 220l63 -66l-282 -285l-219 219l-220 -219zM133 502q0 -175 124.5 -299.5 t299.5 -124.5q177 0 301.5 124.5t124.5 299.5q0 177 -124.5 301.5t-301.5 124.5q-175 0 -299.5 -124.5t-124.5 -301.5z" />
<glyph unicode="&#xe4;" d="M41 502q0 141 69 260.5t188 188.5t259 69q215 0 366.5 -151.5t151.5 -366.5v-502h-92v209q-72 -103 -184 -163t-242 -60q-140 0 -259 69t-188 188t-69 259zM133 502q0 -175 124.5 -299.5t299.5 -124.5q177 0 301.5 124.5t124.5 299.5q0 177 -124.5 301.5t-301.5 124.5 q-175 0 -299.5 -124.5t-124.5 -301.5zM276 1161v111h105v-111h-105zM750 1161v111h104v-111h-104z" />
<glyph unicode="&#xe5;" d="M41 502q0 141 69 260.5t188 188.5t259 69q215 0 366.5 -151.5t151.5 -366.5v-502h-92v209q-72 -103 -184 -163t-242 -60q-140 0 -259 69t-188 188t-69 259zM133 502q0 -175 124.5 -299.5t299.5 -124.5q177 0 301.5 124.5t124.5 299.5q0 177 -124.5 301.5t-301.5 124.5 q-175 0 -299.5 -124.5t-124.5 -301.5zM387 1253q0 72 49.5 122t120.5 50t121.5 -50t50.5 -122q0 -70 -50.5 -120t-121.5 -50t-120.5 49.5t-49.5 120.5zM479 1253q0 -33 25 -55q22 -22 53 -22q34 0 57 22.5t23 54.5t-23 58q-22 22 -57 22q-32 0 -55 -23t-23 -57z" />
<glyph unicode="&#xe6;" d="M41 502q0 141 69 260.5t188 188.5t259 69q127 0 237.5 -57.5t182.5 -155.5l-68 -66h-522v82h451q-121 105 -281 105q-175 0 -299.5 -124.5t-124.5 -301.5q0 -175 124.5 -299.5t299.5 -124.5q177 0 301.5 124.5t124.5 299.5h92v-502h-92v209q-74 -101 -185 -162t-241 -61 q-140 0 -259 69t-188 188t-69 259z" />
<glyph unicode="&#xe7;" horiz-adv-x="901" d="M41 506q0 215 151.5 366.5t366.5 151.5q197 0 342 -129l-65 -66q-121 103 -277 103q-177 0 -301.5 -124.5t-124.5 -301.5q0 -175 124.5 -299.5t301.5 -124.5q157 0 277 102l65 -65q-145 -129 -342 -129q-141 0 -260.5 69t-188.5 188t-69 259zM520 -14v-72q17 0 29 -13 t12 -30t-12 -29t-29 -12v-72q46 0 79.5 33t33.5 80t-33.5 81t-79.5 34z" />
<glyph unicode="&#xe8;" horiz-adv-x="1017" d="M41 502q0 141 69 260.5t188 188.5t259 69q127 0 237.5 -57.5t182.5 -155.5l-68 -66h-522v82h451q-121 105 -281 105q-175 0 -299.5 -124.5t-124.5 -301.5q0 -175 124.5 -299.5t299.5 -124.5q109 0 201.5 50t150.5 136l68 -65q-72 -98 -182.5 -155.5t-237.5 -57.5 q-140 0 -259 69t-188 188t-69 259zM356 1436l84 39l170 -371l-82 -39z" />
<glyph unicode="&#xe9;" horiz-adv-x="1017" d="M41 502q0 141 69 260.5t188 188.5t259 69q127 0 237.5 -57.5t182.5 -155.5l-68 -66h-522v82h451q-121 105 -281 105q-175 0 -299.5 -124.5t-124.5 -301.5q0 -175 124.5 -299.5t299.5 -124.5q109 0 201.5 50t150.5 136l68 -65q-72 -98 -182.5 -155.5t-237.5 -57.5 q-140 0 -259 69t-188 188t-69 259zM522 1100l170 370l84 -38l-172 -371z" />
<glyph unicode="&#xea;" horiz-adv-x="1017" d="M41 502q0 141 69 260.5t188 188.5t259 69q127 0 237.5 -57.5t182.5 -155.5l-68 -66h-522v82h451q-121 105 -281 105q-175 0 -299.5 -124.5t-124.5 -301.5q0 -175 124.5 -299.5t299.5 -124.5q109 0 201.5 50t150.5 136l68 -65q-72 -98 -182.5 -155.5t-237.5 -57.5 q-140 0 -259 69t-188 188t-69 259zM283 1149l284 285l285 -283l-66 -66l-219 218l-219 -220zM285 1149l282 285l285 -285l-43 -43l-242 242l-239 -242z" />
<glyph unicode="&#xeb;" horiz-adv-x="1017" d="M41 502q0 141 69 260.5t188 188.5t259 69q127 0 237.5 -57.5t182.5 -155.5l-68 -66h-522v82h451q-121 105 -281 105q-175 0 -299.5 -124.5t-124.5 -301.5q0 -175 124.5 -299.5t299.5 -124.5q109 0 201.5 50t150.5 136l68 -65q-72 -98 -182.5 -155.5t-237.5 -57.5 q-140 0 -259 69t-188 188t-69 259zM244 1161v111h104v-111h-104zM717 1161v111h104v-111h-104z" />
<glyph unicode="&#xec;" horiz-adv-x="204" d="M-102 1436l84 39l170 -371l-82 -39zM66 0v1024h92v-1024h-92z" />
<glyph unicode="&#xed;" horiz-adv-x="204" d="M66 0v1024h92v-1024h-92zM66 1100l170 370l83 -38l-172 -371z" />
<glyph unicode="&#xee;" horiz-adv-x="215" d="M-176 1149l285 285l284 -283l-65 -66l-219 218l-220 -220zM61 0v1024h93v-1024h-93z" />
<glyph unicode="&#xef;" horiz-adv-x="239" d="M-31 1161v111h105v-111h-105zM74 0v1024h92v-1024h-92zM166 1161v111h104v-111h-104z" />
<glyph unicode="&#xf0;" horiz-adv-x="1071" d="M23 502q0 101 38 196t113 170q74 74 169 113t196 39q30 0 92 -8l-174 172l-105 -105l-63 66l104 104l-104 105l63 65l105 -106l106 106l66 -65l-107 -105l381 -383q75 -75 114.5 -169.5t39.5 -194.5q0 -101 -39 -196t-113 -169q-75 -75 -170 -113t-196 -38 q-102 0 -196.5 37.5t-168.5 111.5q-151 151 -151 367zM115 502q0 -176 123 -299q125 -125 301 -125t301 125t125 299t-125 299q-127 127 -301 127t-299 -125t-125 -301z" />
<glyph unicode="&#xf1;" horiz-adv-x="983" d="M61 0v1024h93v-164q60 76 148.5 120t189.5 44q178 0 304 -126t126 -304v-594h-93v594q0 140 -99 239t-238 99q-140 0 -239 -99t-99 -239v-594h-93zM92 1145l283 285l219 -220l219 220l64 -66l-283 -285l-219 219l-219 -219z" />
<glyph unicode="&#xf2;" horiz-adv-x="1136" d="M61 506q0 141 69.5 260.5t188.5 188.5t259 69q215 0 366.5 -151.5t151.5 -366.5q0 -140 -69 -259t-188.5 -188t-260.5 -69q-140 0 -259 69t-188.5 188t-69.5 259zM154 506q0 -175 124.5 -299.5t299.5 -124.5q177 0 301.5 124.5t124.5 299.5q0 177 -124.5 301.5 t-301.5 124.5q-175 0 -299.5 -124.5t-124.5 -301.5zM356 1436l84 39l170 -371l-82 -39z" />
<glyph unicode="&#xf3;" d="M41 506q0 141 69 260.5t188 188.5t259 69q215 0 366.5 -151.5t151.5 -366.5q0 -140 -69 -259t-188.5 -188t-260.5 -69q-140 0 -259 69t-188 188t-69 259zM133 506q0 -175 124.5 -299.5t299.5 -124.5q177 0 301.5 124.5t124.5 299.5q0 177 -124.5 301.5t-301.5 124.5 q-175 0 -299.5 -124.5t-124.5 -301.5zM522 1100l170 370l84 -38l-172 -371z" />
<glyph unicode="&#xf4;" d="M41 506q0 141 69 260.5t188 188.5t259 69q215 0 366.5 -151.5t151.5 -366.5q0 -140 -69 -259t-188.5 -188t-260.5 -69q-140 0 -259 69t-188 188t-69 259zM133 506q0 -175 124.5 -299.5t299.5 -124.5q177 0 301.5 124.5t124.5 299.5q0 177 -124.5 301.5t-301.5 124.5 q-175 0 -299.5 -124.5t-124.5 -301.5zM283 1149l284 285l285 -283l-66 -66l-219 218l-219 -220z" />
<glyph unicode="&#xf5;" d="M41 506q0 141 69 260.5t188 188.5t259 69q215 0 366.5 -151.5t151.5 -366.5q0 -140 -69 -259t-188.5 -188t-260.5 -69q-140 0 -259 69t-188 188t-69 259zM133 506q0 -175 124.5 -299.5t299.5 -124.5q177 0 301.5 124.5t124.5 299.5q0 177 -124.5 301.5t-301.5 124.5 q-175 0 -299.5 -124.5t-124.5 -301.5zM139 1145l283 285l219 -220l219 220l64 -66l-283 -285l-219 219l-219 -219z" />
<glyph unicode="&#xf6;" d="M41 506q0 141 69 260.5t188 188.5t259 69q215 0 366.5 -151.5t151.5 -366.5q0 -140 -69 -259t-188.5 -188t-260.5 -69q-140 0 -259 69t-188 188t-69 259zM133 506q0 -175 124.5 -299.5t299.5 -124.5q177 0 301.5 124.5t124.5 299.5q0 177 -124.5 301.5t-301.5 124.5 q-175 0 -299.5 -124.5t-124.5 -301.5zM272 1161v111h105v-111h-105zM745 1161v111h105v-111h-105z" />
<glyph unicode="&#xf7;" horiz-adv-x="888" d="M0 416v82h889v-82h-889zM381 0v111h104v-111h-104zM381 809v111h104v-111h-104z" />
<glyph unicode="&#xf8;" d="M41 506q0 141 69 260.5t188 188.5t259 69q113 0 213 -47l59 106l74 -43l-59 -104q106 -70 168.5 -183.5t62.5 -246.5q0 -140 -69 -259t-188.5 -188t-260.5 -69q-117 0 -217 47l-70 -125l-73 43l69 123q-104 72 -164.5 184.5t-60.5 243.5zM133 506q0 -106 47.5 -196.5 t130.5 -149.5l414 737q-78 35 -168 35q-175 0 -299.5 -124.5t-124.5 -301.5zM385 117q81 -35 172 -35q177 0 301.5 124.5t124.5 299.5q0 107 -49.5 198.5t-134.5 151.5z" />
<glyph unicode="&#xf9;" horiz-adv-x="1157" d="M80 506v518h92v-518q0 -175 124.5 -299.5t299.5 -124.5q177 0 301.5 124.5t124.5 299.5v518h92v-518q0 -140 -69 -259t-188.5 -188t-260.5 -69q-140 0 -259 69t-188 188t-69 259zM436 1436l84 39l170 -371l-82 -39z" />
<glyph unicode="&#xfa;" horiz-adv-x="1157" d="M80 506v518h92v-518q0 -175 124.5 -299.5t299.5 -124.5q177 0 301.5 124.5t124.5 299.5v518h92v-518q0 -140 -69 -259t-188.5 -188t-260.5 -69q-140 0 -259 69t-188 188t-69 259zM543 1100l170 370l84 -38l-172 -371z" />
<glyph unicode="&#xfb;" horiz-adv-x="1157" d="M80 506v518h92v-518q0 -175 124.5 -299.5t299.5 -124.5q177 0 301.5 124.5t124.5 299.5v518h92v-518q0 -140 -69 -259t-188.5 -188t-260.5 -69q-140 0 -259 69t-188 188t-69 259zM303 1149l285 285l284 -283l-65 -66l-219 218l-219 -220zM305 1149l283 285l284 -285 l-43 -43l-241 242l-240 -242z" />
<glyph unicode="&#xfc;" horiz-adv-x="1157" d="M80 506v518h92v-518q0 -175 124.5 -299.5t299.5 -124.5q177 0 301.5 124.5t124.5 299.5v518h92v-518q0 -140 -69 -259t-188.5 -188t-260.5 -69q-140 0 -259 69t-188 188t-69 259zM285 1090v110h104v-110h-104zM758 1090v110h104v-110h-104z" />
<glyph unicode="&#xfd;" horiz-adv-x="882" d="M20 -244q83 22 151 74t110 125l118 256l-379 813h103l328 -705l327 705h103l-486 -1038q-6 -20 -33 -72q-69 -126 -192 -195q-67 -40 -150 -59v96zM379 1100l170 370l84 -38l-172 -371z" />
<glyph unicode="&#xfe;" horiz-adv-x="983" d="M61 -436v1911h93v-560q137 105 311 105q215 0 366.5 -151.5t151.5 -366.5q0 -140 -69 -259t-188.5 -188t-260.5 -69q-175 0 -311 104v-526h-93zM154 215q60 -64 140.5 -100.5t170.5 -36.5q177 0 301.5 124.5t124.5 299.5q0 177 -124.5 301.5t-301.5 124.5 q-90 0 -170.5 -36.5t-140.5 -100.5v-576z" />
<glyph unicode="&#xff;" horiz-adv-x="880" d="M20 -244q83 22 151 74t110 125l118 256l-379 813h103l328 -705l327 705h103l-486 -1038q-6 -20 -33 -72q-69 -126 -192 -195q-67 -40 -150 -59v96zM168 1161v111h104v-111h-104zM641 1161v111h104v-111h-104z" />
<glyph unicode="&#x152;" horiz-adv-x="1110" d="M41 559v301q0 117 45.5 222t122 180t182.5 119t223 44h435v-92h-342v-289h198v-81h-198v-871h342v-92h-435q-117 0 -223 43t-183 117t-122 178t-45 221zM133 559q0 -198 140 -332.5t341 -134.5v1241q-131 0 -241.5 -62t-175 -171t-64.5 -240v-301z" />
<glyph unicode="&#x153;" d="M41 506q0 141 69 260.5t188 188.5t259 69q215 0 366.5 -151.5t151.5 -366.5q0 -140 -69 -259t-188.5 -188t-260.5 -69q-140 0 -259 69t-188 188t-69 259zM133 506q0 -175 124.5 -299.5t299.5 -124.5q177 0 301.5 124.5t124.5 299.5q0 131 -74 235h-522v82h455 q-122 109 -285 109q-175 0 -299.5 -124.5t-124.5 -301.5z" />
<glyph unicode="&#x178;" horiz-adv-x="1146" d="M0 1425h92l481 -933l482 933h92l-529 -1024v-401h-92v401zM285 1599v111h104v-111h-104zM758 1599v111h104v-111h-104z" />
<glyph unicode="&#x2c6;" horiz-adv-x="651" d="M41 1149l285 285l284 -283l-65 -66l-219 218l-220 -220z" />
<glyph unicode="&#x2dc;" horiz-adv-x="866" d="M41 1165l283 285l219 -219l219 219l63 -66l-282 -284l-219 219l-220 -219z" />
<glyph unicode="&#x2000;" horiz-adv-x="963" />
<glyph unicode="&#x2001;" horiz-adv-x="1927" />
<glyph unicode="&#x2002;" horiz-adv-x="963" />
<glyph unicode="&#x2003;" horiz-adv-x="1927" />
<glyph unicode="&#x2004;" horiz-adv-x="642" />
<glyph unicode="&#x2005;" horiz-adv-x="481" />
<glyph unicode="&#x2006;" horiz-adv-x="321" />
<glyph unicode="&#x2007;" horiz-adv-x="321" />
<glyph unicode="&#x2008;" horiz-adv-x="240" />
<glyph unicode="&#x2009;" horiz-adv-x="385" />
<glyph unicode="&#x200a;" horiz-adv-x="107" />
<glyph unicode="&#x2010;" horiz-adv-x="555" d="M41 745v70h473v-70h-473z" />
<glyph unicode="&#x2011;" horiz-adv-x="555" d="M41 745v70h473v-70h-473z" />
<glyph unicode="&#x2012;" horiz-adv-x="555" d="M41 745v70h473v-70h-473z" />
<glyph unicode="&#x2013;" horiz-adv-x="876" d="M41 737v82h795v-82h-795z" />
<glyph unicode="&#x2014;" horiz-adv-x="1269" d="M41 735v84h1188v-84h-1188z" />
<glyph unicode="&#x2018;" horiz-adv-x="186" d="M41 1294v111l43 123h39v-123h22v-111h-104z" />
<glyph unicode="&#x2019;" horiz-adv-x="186" d="M41 1294v111h104v-111l-43 -123h-39v123h-22z" />
<glyph unicode="&#x201a;" horiz-adv-x="184" d="M41 0v111h102v-195h-57l-18 84h-27z" />
<glyph unicode="&#x201c;" horiz-adv-x="344" d="M41 1303v110l43 123h39v-123h22v-110h-104zM199 1303v110l43 123h39v-123h22v-110h-104z" />
<glyph unicode="&#x201d;" horiz-adv-x="344" d="M41 1298v111h104v-111l-43 -122h-39v122h-22zM199 1298v111h104v-111l-43 -122h-39v122h-22z" />
<glyph unicode="&#x201e;" horiz-adv-x="333" d="M41 0v111h94v-195h-49l-18 84h-27zM188 0v111h105v-195h-60l-18 84h-27z" />
<glyph unicode="&#x2022;" horiz-adv-x="423" d="M41 860q0 72 49.5 122t120.5 50t121.5 -50t50.5 -122q0 -70 -50.5 -120t-121.5 -50t-120.5 50t-49.5 120z" />
<glyph unicode="&#x2026;" horiz-adv-x="681" d="M41 0v111h104v-111h-104zM289 0v111h104v-111h-104zM537 0v111h104v-111h-104z" />
<glyph unicode="&#x202f;" horiz-adv-x="385" />
<glyph unicode="&#x2039;" horiz-adv-x="651" d="M0 471l518 520l66 -63l-453 -457l459 -455l-64 -65z" />
<glyph unicode="&#x203a;" horiz-adv-x="333" d="M0 -8l233 518l-233 518l84 39l250 -557l-250 -557z" />
<glyph unicode="&#x205f;" horiz-adv-x="481" />
<glyph unicode="&#x20ac;" horiz-adv-x="1177" d="M0 444v93h125v256h-125v92h129q23 193 169 323.5t343 130.5q140 0 259 -69t188 -188t69 -259h-92q0 175 -124 299.5t-300 124.5q-159 0 -278.5 -104t-141.5 -258h420v-92h-424v-256h424v-93h-420q20 -156 140 -261t280 -105q90 0 166 33q78 35 135 92q60 60 90 133 q33 76 33 166h92q0 -140 -69 -259t-188 -188t-259 -69q-199 0 -345.5 132t-168.5 326h-127z" />
<glyph unicode="&#x25fc;" horiz-adv-x="1024" d="M0 0v1024h1024v-1024h-1024z" />
<glyph unicode="&#xfb01;" horiz-adv-x="528" d="M72 0v1200q0 109 76.5 185.5t185.5 76.5v-92q-70 0 -120 -50t-50 -120v-176h80v-82h-80v-942h-92zM369 0v1024h92v-1024h-92zM369 1204h92v92h-92v-92z" />
<glyph unicode="&#xfb02;" horiz-adv-x="528" d="M72 0v1200q0 109 76.5 185.5t185.5 76.5v-92q-70 0 -120 -50t-50 -120v-176h80v-82h-80v-942h-92zM373 0v1425h92v-1425h-92z" />
</font>
</defs>
</svg>
