<?xml version="1.0" encoding="utf-8"?>
<!-- Generator: Adobe Illustrator 19.2.1, SVG Export Plug-In . SVG Version: 6.00 Build 0)  -->
<svg version="1.1" id="Calque_1" xmlns="http://www.w3.org/2000/svg" xmlns:xlink="http://www.w3.org/1999/xlink" x="0px" y="0px"
	 viewBox="0 0 32 30" style="enable-background:new 0 0 32 30;" xml:space="preserve">
<style type="text/css">
	.st0{fill:#FFFFFF;}
	.st1{fill:#FFFFFF;stroke:#000000;stroke-width:0.1415;}
</style>
<title>Icon escalade</title>
<desc>Created with Sketch.</desc>
<g id="Page-1">
	<g id="iPhone-6" transform="translate(-314.000000, -47.000000)">
		<g id="Header" transform="translate(30.000000, 47.000000)">
			<g id="Icon-escalade" transform="translate(284.000000, 0.000000)">
				<path id="Shape" class="st0" d="M5,13.8c-0.2,1.1-1.4,1.8-2.5,1.6c-1.1-0.3-1.9-1.4-1.6-2.5s1.4-1.8,2.5-1.6S5.3,12.7,5,13.8
					L5,13.8z"/>
				<path id="Shape_1_" class="st0" d="M5.1,18.1c-0.4-0.5-0.5-0.7-0.7-1.2c-0.1-0.2-0.1-0.4,0-0.8c0.1-0.8,0.5-1.4,1.2-1.9L6,13.9
					l0-3c0-1.6,0-3.1,0-3.3c0-0.4,0.2-0.6,0.4-0.8c0.4-0.3,1-0.3,1.4,0c0.3,0.3,0.4,0.7,0.5,3C8.3,13,8,13.3,8.4,13.2
					c0.7-0.3,1.2-0.9,2.1-2.2c0.9-1.5,1.3-1.9,1.6-2.1c0.5-0.2,1.2,0.1,1.4,0.6c0.1,0.3,0.1,0.7-0.1,1c-0.2,0.4-1.9,3.1-2.1,3.4
					c-0.2,0.2-0.4,0.4-1.3,1c-0.6,0.4-1.1,0.7-1.1,0.8c0,0.1,0.4,0.6,1.1,1.3c0.8,0.8,1.5,1.5,1.4,1.6c-0.7,0.5-2.6,3.4-3.2,2.8
					C7.7,21,5.5,18.6,5.1,18.1z"/>
				<path id="Shape_2_" class="st0" d="M21,28.2c-0.3-0.2-0.6-0.4-2-1.6c-0.8-0.6-1.7-1.4-2-1.6l-0.6-0.5l-1.3-0.3
					c-3.7-0.9-4.7-1.2-5.4-1.5c-0.3-0.1-1-0.8-1-0.8c0,0,0.6-0.1,1-0.5c2-1.8,3.2-4.4,5.2-6.2c0.3-0.2,0.4-0.3,0.8-0.2
					c0.9,0,3.9,0.3,4.7,0.5c0.6,0.1,1.2,0.3,1.4,0.6c0.4,0.6,0.4,1.5-0.3,1.9c-0.4,0.3-1.2,0.3-3.2,0.1c-1.7-0.2-1.9-0.2-2.3,0.1
					c-0.3,0.2-2.1,2.5-2.2,2.7c0,0.1,0.3,0.2,0.7,0.4c0.3,0.1,1,0.3,1.6,0.5c1.1,0.3,1.6,0.5,1.9,0.6c0.2,0.1,3.7,3.1,4.1,3.5
					c0.4,0.4,0.6,0.8,0.7,1c0.1,0.3-0.1,0.9-0.3,1.1C22.1,28.3,21.5,28.4,21,28.2L21,28.2z"/>
				<path id="Shape_3_" class="st0" d="M7.5,25.7c-0.3-0.5-0.8-2.2-0.8-2.4c0-0.2,0.9-0.5,1.3-0.7c0.5-0.1,0.7-0.1,0.8,0.1
					c0.2,0.3,0.8,1.8,0.8,2.2c0,0.2,0,0.2-0.1,0.3C8.7,25.6,7.7,26.1,7.5,25.7L7.5,25.7z"/>
				<path id="Shape_4_" class="st1" d="M2.5,0.6c0,0-0.8,0.4-0.9,0.8c-0.1,0.4,0.1,1,0.5,1.5s0.8,1,1.5,1.1c0.7,0.1,1.7-0.3,2.2,0.1
					s0.9,1.6,1.4,2c0.6,0.4,5.1,2.1,5.7,2.5s5.2,1.5,5.7,1.8c0.6,0.3,2.2,0.6,2.8,1.3c0.6,0.8,1.4,2.2,1.6,3
					c0.2,0.8-0.5,3.4,0.1,4.6c0.7,1.2,2.8,1.9,3.8,3.1c1,1.2,1.6,2.9,2,4.2c0.4,1.2-0.1,2.5,0.5,3c0.6,0.5,1.5,0.6,1.6,0
					c0.1-0.6,0-21.5-0.1-29C30.1,0.4,2.5,0.6,2.5,0.6z"/>
			</g>
		</g>
	</g>
</g>
</svg>
